<svg width="51" height="51" viewBox="0 0 51 51" fill="none" xmlns="http://www.w3.org/2000/svg">
<path fill-rule="evenodd" clip-rule="evenodd" d="M18.3035 40.5094C11.66 40.3577 6.32104 34.9247 6.32104 28.2447C6.32104 21.4694 11.8136 15.9768 18.589 15.9768C24.3785 15.9768 29.2313 19.9872 30.521 25.3816C31.173 25.2022 31.8596 25.1065 32.5686 25.1065C36.8229 25.1065 40.2717 28.5553 40.2717 32.8096C40.2717 37.0639 36.8229 40.5127 32.5686 40.5127C32.5641 40.5127 32.5597 40.5127 32.5552 40.5127H18.589H18.3035V40.5094Z" fill="#D9D9D9" style="fill:#D9D9D9;fill:color(display-p3 0.8510 0.8510 0.8510);fill-opacity:1;"/>
<path fill-rule="evenodd" clip-rule="evenodd" d="M18.3035 40.5094C11.66 40.3577 6.32104 34.9247 6.32104 28.2447C6.32104 21.4694 11.8136 15.9768 18.589 15.9768C24.3785 15.9768 29.2313 19.9872 30.521 25.3816C31.173 25.2022 31.8596 25.1065 32.5686 25.1065C36.8229 25.1065 40.2717 28.5553 40.2717 32.8096C40.2717 37.0639 36.8229 40.5127 32.5686 40.5127C32.5641 40.5127 32.5597 40.5127 32.5552 40.5127H18.589H18.3035V40.5094Z" fill="url(#paint0_linear_5_914)" style=""/>
<g filter="url(#filter0_d_5_914)">
<path fill-rule="evenodd" clip-rule="evenodd" d="M22.4891 25.3722L27.3042 29.3709C27.4016 30.6906 27.1302 32.0137 26.4996 33.1725C26.2133 33.6984 26.703 34.4574 27.2386 34.1896C28.006 33.8057 28.7398 33.3222 29.4215 32.7376C31.6741 30.806 32.9233 28.1437 33.1134 25.4192C36.7353 21.4717 38.1885 16.7272 37.0625 13.3099C36.9731 13.0386 36.7376 12.8429 36.4545 12.8049C32.6638 12.2956 27.9345 14.9265 24.6836 19.7441C23.521 21.467 22.6709 23.2867 22.136 25.0788L22.1358 25.0787C22.6707 23.2866 23.5209 21.4669 24.6834 19.7441C24.8663 19.4731 25.0539 19.209 25.2457 18.952C22.6266 19.6496 20.2641 21.3599 18.7904 23.9093C18.341 24.6868 18.0005 25.4969 17.7641 26.3218C17.5992 26.8974 18.4353 27.2394 18.8997 26.8614C19.9229 26.0286 21.1738 25.5188 22.4891 25.3722ZM26.8955 29.3386L22.5192 25.6771L21.625 27.403C21.4404 27.7592 21.528 28.1958 21.8357 28.4532L24.2836 30.5012C24.5913 30.7587 25.0365 30.7678 25.3545 30.5233L26.8955 29.3386Z" fill="#DDFFF9" fill-opacity="0.01" style="fill:#DDFFF9;fill:color(display-p3 0.8667 1.0000 0.9760);fill-opacity:0.01;" shape-rendering="crispEdges"/>
</g>
<g filter="url(#filter1_bi_5_914)">
<path fill-rule="evenodd" clip-rule="evenodd" d="M27.5695 29.6824L22.078 25.1219C22.6129 23.3298 23.4631 21.5101 24.6256 19.7873C27.8766 14.9695 32.6061 12.3387 36.3968 12.8481C36.6799 12.8862 36.9154 13.0818 37.0048 13.3531C38.2017 16.9857 36.4842 22.1178 32.3456 26.1983C30.8656 27.6575 29.233 28.8275 27.5695 29.6824Z" fill="#FFFCDD" fill-opacity="0.5" style="fill:#FFFCDD;fill:color(display-p3 1.0000 0.9867 0.8667);fill-opacity:0.5;"/>
</g>
<g filter="url(#filter2_bi_5_914)">
<path fill-rule="evenodd" clip-rule="evenodd" d="M27.3039 29.3708L27.6269 29.6391C29.2903 28.7841 30.9229 27.6142 32.4029 26.155C32.6482 25.9131 32.885 25.6676 33.1132 25.4188C32.9232 28.1435 31.6739 30.8061 29.4212 32.7378C28.7395 33.3224 28.0057 33.8059 27.2383 34.1897C26.7028 34.4576 26.213 33.6986 26.4993 33.1726C27.13 32.0138 27.4013 30.6906 27.3039 29.3708ZM25.2453 18.9519C25.0535 19.2089 24.866 19.473 24.6831 19.744C23.5206 21.4669 22.6704 23.2866 22.1355 25.0787L22.4889 25.3722C21.1736 25.5188 19.9226 26.0286 18.8994 26.8614C18.4349 27.2394 17.5989 26.8974 17.7638 26.3218C18.0001 25.4969 18.3407 24.6868 18.7901 23.9093C20.2638 21.3599 22.6263 19.6495 25.2453 18.9519Z" fill="#F9DE9C" style="fill:#F9DE9C;fill:color(display-p3 0.9765 0.8706 0.6118);fill-opacity:1;"/>
</g>
<g filter="url(#filter3_i_5_914)">
<path fill-rule="evenodd" clip-rule="evenodd" d="M36.2179 20.8267L29.2205 15.0156C31.6256 13.306 34.2052 12.5027 36.4543 12.8049C36.7374 12.8429 36.9729 13.0385 37.0623 13.3098C37.7725 15.4652 37.4567 18.1484 36.2179 20.8267Z" fill="url(#paint1_linear_5_914)" style=""/>
</g>
<mask id="mask0_5_914" style="mask-type:alpha" maskUnits="userSpaceOnUse" x="6" y="15" width="35" height="26">
<path fill-rule="evenodd" clip-rule="evenodd" d="M18.3035 40.5094C11.66 40.3577 6.32104 34.9247 6.32104 28.2447C6.32104 21.4694 11.8136 15.9768 18.589 15.9768C24.3785 15.9768 29.2313 19.9872 30.521 25.3816C31.173 25.2022 31.8596 25.1065 32.5686 25.1065C36.8229 25.1065 40.2717 28.5553 40.2717 32.8096C40.2717 37.0639 36.8229 40.5127 32.5686 40.5127C32.5641 40.5127 32.5597 40.5127 32.5552 40.5127H18.589H18.3035V40.5094Z" fill="#D9D9D9" style="fill:#D9D9D9;fill:color(display-p3 0.8510 0.8510 0.8510);fill-opacity:1;"/>
<path fill-rule="evenodd" clip-rule="evenodd" d="M18.3035 40.5094C11.66 40.3577 6.32104 34.9247 6.32104 28.2447C6.32104 21.4694 11.8136 15.9768 18.589 15.9768C24.3785 15.9768 29.2313 19.9872 30.521 25.3816C31.173 25.2022 31.8596 25.1065 32.5686 25.1065C36.8229 25.1065 40.2717 28.5553 40.2717 32.8096C40.2717 37.0639 36.8229 40.5127 32.5686 40.5127C32.5641 40.5127 32.5597 40.5127 32.5552 40.5127H18.589H18.3035V40.5094Z" fill="url(#paint2_linear_5_914)" style=""/>
</mask>
<g mask="url(#mask0_5_914)">
<g filter="url(#filter4_d_5_914)">
<path d="M7.03406 38.8009C12.0123 38.1282 18.0058 31.6179 20.3464 29.2046C20.5596 28.9848 20.9058 28.9791 21.134 29.1833C21.7655 29.7486 22.7435 30.5935 23.6554 31.2959C23.9201 31.4997 23.9626 31.8878 23.7411 32.138C17.5138 39.1709 12.5393 41.0833 9.88707 41.0833C5.75021 41.0833 4.3237 39.7995 3.89575 37.517C4.3237 37.945 5.32226 39.0322 7.03406 38.8009Z" fill="url(#paint3_linear_5_914)" fill-opacity="0.01" style="" shape-rendering="crispEdges"/>
</g>
</g>
<g filter="url(#filter5_bi_5_914)">
<path d="M7.03406 38.8009C12.0123 38.1282 18.0058 31.6179 20.3464 29.2046C20.5596 28.9848 20.9058 28.9791 21.134 29.1833C21.7655 29.7486 22.7435 30.5935 23.6554 31.2959C23.9201 31.4997 23.9626 31.8878 23.7411 32.138C17.5138 39.1709 12.5393 41.0833 9.88707 41.0833C5.75021 41.0833 4.3237 39.7995 3.89575 37.517C4.3237 37.945 5.32226 39.0322 7.03406 38.8009Z" fill="url(#paint4_linear_5_914)" fill-opacity="0.5" style=""/>
</g>
<g filter="url(#filter6_bi_5_914)">
<path d="M22.519 25.6771L26.8954 29.3386L25.3544 30.5233C25.0363 30.7678 24.5912 30.7587 24.2835 30.5012L21.8356 28.4532C21.5279 28.1958 21.4403 27.7592 21.6249 27.403L22.519 25.6771Z" fill="#FFFCDD" fill-opacity="0.5" style="fill:#FFFCDD;fill:color(display-p3 1.0000 0.9867 0.8667);fill-opacity:0.5;"/>
</g>
<path fill-rule="evenodd" clip-rule="evenodd" d="M29.145 18.5445C28.1996 18.5445 27.4332 19.3109 27.4332 20.2563C27.4332 21.2017 28.1996 21.9682 29.145 21.9682C30.0904 21.9682 30.8568 21.2017 30.8568 20.2563C30.8568 19.3109 30.0904 18.5445 29.145 18.5445ZM26.8625 20.2563C26.8625 18.9958 27.8844 17.9739 29.145 17.9739C30.4055 17.9739 31.4274 18.9958 31.4274 20.2563C31.4274 21.5169 30.4055 22.5388 29.145 22.5388C27.8844 22.5388 26.8625 21.5169 26.8625 20.2563Z" fill="#EE7F39" stroke="#EE7F39" style="fill:#EE7F39;fill:color(display-p3 0.9333 0.4980 0.2235);fill-opacity:1;stroke:#EE7F39;stroke:color(display-p3 0.9333 0.4980 0.2235);stroke-opacity:1;" stroke-width="0.285301"/>
<defs>
<filter id="filter0_d_5_914" x="14.3193" y="12.7424" width="23.1162" height="24.9264" filterUnits="userSpaceOnUse" color-interpolation-filters="sRGB">
<feFlood flood-opacity="0" result="BackgroundImageFix"/>
<feColorMatrix in="SourceAlpha" type="matrix" values="0 0 0 0 0 0 0 0 0 0 0 0 0 0 0 0 0 0 127 0" result="hardAlpha"/>
<feOffset dx="-1.71181" dy="1.71181"/>
<feGaussianBlur stdDeviation="0.855903"/>
<feComposite in2="hardAlpha" operator="out"/>
<feColorMatrix type="matrix" values="0 0 0 0 0.653416 0 0 0 0 0.274435 0 0 0 0 0 0 0 0 0.45 0"/>
<feBlend mode="normal" in2="BackgroundImageFix" result="effect1_dropShadow_5_914"/>
<feBlend mode="normal" in="SourceGraphic" in2="effect1_dropShadow_5_914" result="shape"/>
</filter>
<filter id="filter1_bi_5_914" x="20.3663" y="11.0738" width="18.7234" height="20.3204" filterUnits="userSpaceOnUse" color-interpolation-filters="sRGB">
<feFlood flood-opacity="0" result="BackgroundImageFix"/>
<feGaussianBlur in="BackgroundImageFix" stdDeviation="0.855903"/>
<feComposite in2="SourceAlpha" operator="in" result="effect1_backgroundBlur_5_914"/>
<feBlend mode="normal" in="SourceGraphic" in2="effect1_backgroundBlur_5_914" result="shape"/>
<feColorMatrix in="SourceAlpha" type="matrix" values="0 0 0 0 0 0 0 0 0 0 0 0 0 0 0 0 0 0 127 0" result="hardAlpha"/>
<feOffset dy="0.285301"/>
<feGaussianBlur stdDeviation="0.14265"/>
<feComposite in2="hardAlpha" operator="arithmetic" k2="-1" k3="1"/>
<feColorMatrix type="matrix" values="0 0 0 0 0.989699 0 0 0 0 0.998764 0 0 0 0 1 0 0 0 0.5 0"/>
<feBlend mode="normal" in2="shape" result="effect2_innerShadow_5_914"/>
</filter>
<filter id="filter2_bi_5_914" x="16.0309" y="17.2401" width="18.7942" height="18.717" filterUnits="userSpaceOnUse" color-interpolation-filters="sRGB">
<feFlood flood-opacity="0" result="BackgroundImageFix"/>
<feGaussianBlur in="BackgroundImageFix" stdDeviation="0.855903"/>
<feComposite in2="SourceAlpha" operator="in" result="effect1_backgroundBlur_5_914"/>
<feBlend mode="normal" in="SourceGraphic" in2="effect1_backgroundBlur_5_914" result="shape"/>
<feColorMatrix in="SourceAlpha" type="matrix" values="0 0 0 0 0 0 0 0 0 0 0 0 0 0 0 0 0 0 127 0" result="hardAlpha"/>
<feOffset dy="0.285301"/>
<feGaussianBlur stdDeviation="0.14265"/>
<feComposite in2="hardAlpha" operator="arithmetic" k2="-1" k3="1"/>
<feColorMatrix type="matrix" values="0 0 0 0 0.989699 0 0 0 0 0.998764 0 0 0 0 1 0 0 0 0.5 0"/>
<feBlend mode="normal" in2="shape" result="effect2_innerShadow_5_914"/>
</filter>
<filter id="filter3_i_5_914" x="29.2205" y="12.7424" width="8.21484" height="8.36953" filterUnits="userSpaceOnUse" color-interpolation-filters="sRGB">
<feFlood flood-opacity="0" result="BackgroundImageFix"/>
<feBlend mode="normal" in="SourceGraphic" in2="BackgroundImageFix" result="shape"/>
<feColorMatrix in="SourceAlpha" type="matrix" values="0 0 0 0 0 0 0 0 0 0 0 0 0 0 0 0 0 0 127 0" result="hardAlpha"/>
<feOffset dy="0.285301"/>
<feGaussianBlur stdDeviation="0.14265"/>
<feComposite in2="hardAlpha" operator="arithmetic" k2="-1" k3="1"/>
<feColorMatrix type="matrix" values="0 0 0 0 1 0 0 0 0 0.881009 0 0 0 0 0.988101 0 0 0 0.44 0"/>
<feBlend mode="normal" in2="shape" result="effect1_innerShadow_5_914"/>
</filter>
<filter id="filter4_d_5_914" x="1.89865" y="27.6083" width="22.2704" height="14.3309" filterUnits="userSpaceOnUse" color-interpolation-filters="sRGB">
<feFlood flood-opacity="0" result="BackgroundImageFix"/>
<feColorMatrix in="SourceAlpha" type="matrix" values="0 0 0 0 0 0 0 0 0 0 0 0 0 0 0 0 0 0 127 0" result="hardAlpha"/>
<feOffset dx="-0.855903" dy="-0.285301"/>
<feGaussianBlur stdDeviation="0.570602"/>
<feComposite in2="hardAlpha" operator="out"/>
<feColorMatrix type="matrix" values="0 0 0 0 0.654902 0 0 0 0 0.27451 0 0 0 0 0 0 0 0 0.5 0"/>
<feBlend mode="normal" in2="BackgroundImageFix" result="effect1_dropShadow_5_914"/>
<feBlend mode="normal" in="SourceGraphic" in2="effect1_dropShadow_5_914" result="shape"/>
</filter>
<filter id="filter5_bi_5_914" x="2.18395" y="27.323" width="23.4116" height="15.4721" filterUnits="userSpaceOnUse" color-interpolation-filters="sRGB">
<feFlood flood-opacity="0" result="BackgroundImageFix"/>
<feGaussianBlur in="BackgroundImageFix" stdDeviation="0.855903"/>
<feComposite in2="SourceAlpha" operator="in" result="effect1_backgroundBlur_5_914"/>
<feBlend mode="normal" in="SourceGraphic" in2="effect1_backgroundBlur_5_914" result="shape"/>
<feColorMatrix in="SourceAlpha" type="matrix" values="0 0 0 0 0 0 0 0 0 0 0 0 0 0 0 0 0 0 127 0" result="hardAlpha"/>
<feOffset dy="0.285301"/>
<feGaussianBlur stdDeviation="0.14265"/>
<feComposite in2="hardAlpha" operator="arithmetic" k2="-1" k3="1"/>
<feColorMatrix type="matrix" values="0 0 0 0 0.989699 0 0 0 0 0.998764 0 0 0 0 1 0 0 0 0.5 0"/>
<feBlend mode="normal" in2="shape" result="effect2_innerShadow_5_914"/>
</filter>
<filter id="filter6_bi_5_914" x="19.817" y="23.9653" width="8.79007" height="8.44717" filterUnits="userSpaceOnUse" color-interpolation-filters="sRGB">
<feFlood flood-opacity="0" result="BackgroundImageFix"/>
<feGaussianBlur in="BackgroundImageFix" stdDeviation="0.855903"/>
<feComposite in2="SourceAlpha" operator="in" result="effect1_backgroundBlur_5_914"/>
<feBlend mode="normal" in="SourceGraphic" in2="effect1_backgroundBlur_5_914" result="shape"/>
<feColorMatrix in="SourceAlpha" type="matrix" values="0 0 0 0 0 0 0 0 0 0 0 0 0 0 0 0 0 0 127 0" result="hardAlpha"/>
<feOffset dy="0.285301"/>
<feGaussianBlur stdDeviation="0.14265"/>
<feComposite in2="hardAlpha" operator="arithmetic" k2="-1" k3="1"/>
<feColorMatrix type="matrix" values="0 0 0 0 0.989699 0 0 0 0 0.998764 0 0 0 0 1 0 0 0 0.5 0"/>
<feBlend mode="normal" in2="shape" result="effect2_innerShadow_5_914"/>
</filter>
<linearGradient id="paint0_linear_5_914" x1="23.0112" y1="15.4062" x2="23.0112" y2="40.5127" gradientUnits="userSpaceOnUse">
<stop stop-color="#F5E073" style="stop-color:#F5E073;stop-color:color(display-p3 0.9608 0.8792 0.4510);stop-opacity:1;"/>
<stop offset="1" stop-color="#EC731C" style="stop-color:#EC731C;stop-color:color(display-p3 0.9272 0.4529 0.1094);stop-opacity:1;"/>
</linearGradient>
<linearGradient id="paint1_linear_5_914" x1="36.831" y1="12.9699" x2="32.7192" y2="17.9212" gradientUnits="userSpaceOnUse">
<stop stop-color="#F5DC70" style="stop-color:#F5DC70;stop-color:color(display-p3 0.9608 0.8627 0.4392);stop-opacity:1;"/>
<stop offset="1" stop-color="#EC6F2F" style="stop-color:#EC6F2F;stop-color:color(display-p3 0.9255 0.4353 0.1843);stop-opacity:1;"/>
</linearGradient>
<linearGradient id="paint2_linear_5_914" x1="23.0112" y1="15.4062" x2="23.0112" y2="40.5127" gradientUnits="userSpaceOnUse">
<stop stop-color="#F5E073" style="stop-color:#F5E073;stop-color:color(display-p3 0.9608 0.8792 0.4510);stop-opacity:1;"/>
<stop offset="1" stop-color="#EC731C" style="stop-color:#EC731C;stop-color:color(display-p3 0.9272 0.4529 0.1094);stop-opacity:1;"/>
</linearGradient>
<linearGradient id="paint3_linear_5_914" x1="18.1608" y1="29.8139" x2="13.9526" y2="41.0833" gradientUnits="userSpaceOnUse">
<stop stop-color="#FFA9D7" style="stop-color:#FFA9D7;stop-color:color(display-p3 1.0000 0.6633 0.8451);stop-opacity:1;"/>
<stop offset="1" stop-color="#FFD874" style="stop-color:#FFD874;stop-color:color(display-p3 1.0000 0.8469 0.4533);stop-opacity:1;"/>
</linearGradient>
<linearGradient id="paint4_linear_5_914" x1="18.1608" y1="29.8139" x2="13.9526" y2="41.0833" gradientUnits="userSpaceOnUse">
<stop stop-color="#FFA9D7" style="stop-color:#FFA9D7;stop-color:color(display-p3 1.0000 0.6633 0.8451);stop-opacity:1;"/>
<stop offset="1" stop-color="#FFD874" style="stop-color:#FFD874;stop-color:color(display-p3 1.0000 0.8469 0.4533);stop-opacity:1;"/>
</linearGradient>
</defs>
</svg>
