<svg width="46" height="46" viewBox="0 0 46 46" fill="none" xmlns="http://www.w3.org/2000/svg">
<g filter="url(#filter0_bi_5_828)">
<path d="M22.1253 20.2528C23.1215 19.7547 24.2941 19.7547 25.2902 20.2528L39.222 27.2187C40.2652 27.7403 40.2652 29.229 39.222 29.7506L25.2902 36.7165C24.2941 37.2146 23.1215 37.2146 22.1253 36.7165L8.19354 29.7506C7.15033 29.229 7.15033 27.7403 8.19354 27.2187L22.1253 20.2528Z" fill="#FFE296" fill-opacity="0.5" style="fill:#FFE296;fill:color(display-p3 1.0000 0.8851 0.5897);fill-opacity:0.5;"/>
<path d="M22.1253 20.2528C23.1215 19.7547 24.2941 19.7547 25.2902 20.2528L39.222 27.2187C40.2652 27.7403 40.2652 29.229 39.222 29.7506L25.2902 36.7165C24.2941 37.2146 23.1215 37.2146 22.1253 36.7165L8.19354 29.7506C7.15033 29.229 7.15033 27.7403 8.19354 27.2187L22.1253 20.2528Z" fill="url(#paint0_linear_5_828)" style=""/>
</g>
<mask id="mask0_5_828" style="mask-type:alpha" maskUnits="userSpaceOnUse" x="7" y="19" width="34" height="19">
<path d="M21.8088 20.411C23.0042 19.8133 24.4113 19.8133 25.6067 20.411L39.222 27.2187C40.2652 27.7403 40.2652 29.229 39.222 29.7506L25.6067 36.5582C24.4113 37.1559 23.0042 37.1559 21.8088 36.5582L8.19354 29.7506C7.15033 29.229 7.15033 27.7403 8.19354 27.2187L21.8088 20.411Z" fill="#FFCF96" fill-opacity="0.5" style="fill:#FFCF96;fill:color(display-p3 1.0000 0.8112 0.5897);fill-opacity:0.5;"/>
<path d="M21.8088 20.411C23.0042 19.8133 24.4113 19.8133 25.6067 20.411L39.222 27.2187C40.2652 27.7403 40.2652 29.229 39.222 29.7506L25.6067 36.5582C24.4113 37.1559 23.0042 37.1559 21.8088 36.5582L8.19354 29.7506C7.15033 29.229 7.15033 27.7403 8.19354 27.2187L21.8088 20.411Z" fill="url(#paint1_linear_5_828)" style=""/>
<path d="M21.888 20.5693C23.0336 19.9965 24.382 19.9965 25.5276 20.5693L39.1429 27.3769C40.0557 27.8333 40.0557 29.1359 39.1429 29.5923L25.5276 36.4C24.382 36.9728 23.0336 36.9728 21.888 36.4L8.27266 29.5923C7.35985 29.1359 7.35985 27.8333 8.27266 27.3769L21.888 20.5693Z" stroke="url(#paint2_linear_5_828)" stroke-opacity="0.01" style="" stroke-width="0.353846"/>
</mask>
<g mask="url(#mask0_5_828)">
<g filter="url(#filter1_d_5_828)">
<path d="M22.4416 10.5407C23.2386 10.1422 24.1766 10.1422 24.9735 10.5407L43.468 19.7879C44.5112 20.3095 44.5112 21.7982 43.468 22.3198L24.9735 31.567C24.1766 31.9655 23.2386 31.9655 22.4416 31.567L3.9472 22.3198C2.90399 21.7982 2.90399 20.3095 3.9472 19.7879L22.4416 10.5407Z" fill="#FFCF96" fill-opacity="0.5" style="fill:#FFCF96;fill:color(display-p3 1.0000 0.8112 0.5897);fill-opacity:0.5;"/>
<path d="M22.4416 10.5407C23.2386 10.1422 24.1766 10.1422 24.9735 10.5407L43.468 19.7879C44.5112 20.3095 44.5112 21.7982 43.468 22.3198L24.9735 31.567C24.1766 31.9655 23.2386 31.9655 22.4416 31.567L3.9472 22.3198C2.90399 21.7982 2.90399 20.3095 3.9472 19.7879L22.4416 10.5407Z" fill="url(#paint3_linear_5_828)" style=""/>
<path d="M23.2329 12.1231C23.5317 11.9737 23.8835 11.9737 24.1823 12.1231L24.9627 10.5623L24.1823 12.1231L42.0438 21.0538L24.1823 29.9846C23.8835 30.134 23.5317 30.134 23.2329 29.9846L5.3714 21.0538L23.2329 12.1231Z" stroke="url(#paint4_linear_5_828)" stroke-opacity="0.01" style="" stroke-width="3.53846"/>
</g>
</g>
<g filter="url(#filter2_b_5_828)">
<path d="M23.2329 12.1231C23.5317 11.9737 23.8835 11.9737 24.1823 12.1231L24.9627 10.5623L24.1823 12.1231L42.0438 21.0538L24.1823 29.9846C23.8835 30.134 23.5317 30.134 23.2329 29.9846L5.3714 21.0538L23.2329 12.1231Z" stroke="url(#paint5_linear_5_828)" stroke-opacity="0.5" style="" stroke-width="3.53846"/>
</g>
<g opacity="0.8" filter="url(#filter3_bi_5_828)">
<path d="M22.1253 9.28353C23.1215 8.78545 24.294 8.78545 25.2902 9.28353L37.0989 15.1879C38.1421 15.7095 38.1421 17.1982 37.0989 17.7198L25.2902 23.6242C24.294 24.1222 23.1215 24.1222 22.1253 23.6242L10.3166 17.7198C9.27338 17.1982 9.27338 15.7095 10.3166 15.1879L22.1253 9.28353Z" fill="#FFE296" fill-opacity="0.5" style="fill:#FFE296;fill:color(display-p3 1.0000 0.8851 0.5897);fill-opacity:0.5;"/>
<path d="M22.1253 9.28353C23.1215 8.78545 24.294 8.78545 25.2902 9.28353L37.0989 15.1879C38.1421 15.7095 38.1421 17.1982 37.0989 17.7198L25.2902 23.6242C24.294 24.1222 23.1215 24.1222 22.1253 23.6242L10.3166 17.7198C9.27338 17.1982 9.27338 15.7095 10.3166 15.1879L22.1253 9.28353Z" fill="url(#paint6_linear_5_828)" style=""/>
</g>
<defs>
<filter id="filter0_bi_5_828" x="5.28806" y="17.7561" width="36.8394" height="21.457" filterUnits="userSpaceOnUse" color-interpolation-filters="sRGB">
<feFlood flood-opacity="0" result="BackgroundImageFix"/>
<feGaussianBlur in="BackgroundImageFix" stdDeviation="1.06154"/>
<feComposite in2="SourceAlpha" operator="in" result="effect1_backgroundBlur_5_828"/>
<feBlend mode="normal" in="SourceGraphic" in2="effect1_backgroundBlur_5_828" result="shape"/>
<feColorMatrix in="SourceAlpha" type="matrix" values="0 0 0 0 0 0 0 0 0 0 0 0 0 0 0 0 0 0 127 0" result="hardAlpha"/>
<feOffset dy="0.707692"/>
<feGaussianBlur stdDeviation="0.176923"/>
<feComposite in2="hardAlpha" operator="arithmetic" k2="-1" k3="1"/>
<feColorMatrix type="matrix" values="0 0 0 0 1 0 0 0 0 0.871993 0 0 0 0 0.679983 0 0 0 0.25 0"/>
<feBlend mode="normal" in2="shape" result="effect2_innerShadow_5_828"/>
</filter>
<filter id="filter1_d_5_828" x="1.74941" y="10.2418" width="43.9165" height="25.5164" filterUnits="userSpaceOnUse" color-interpolation-filters="sRGB">
<feFlood flood-opacity="0" result="BackgroundImageFix"/>
<feColorMatrix in="SourceAlpha" type="matrix" values="0 0 0 0 0 0 0 0 0 0 0 0 0 0 0 0 0 0 127 0" result="hardAlpha"/>
<feOffset dy="2.47692"/>
<feGaussianBlur stdDeviation="0.707692"/>
<feComposite in2="hardAlpha" operator="out"/>
<feColorMatrix type="matrix" values="0 0 0 0 0.632603 0 0 0 0 0.303649 0 0 0 0 0 0 0 0 0.25 0"/>
<feBlend mode="normal" in2="BackgroundImageFix" result="effect1_dropShadow_5_828"/>
<feBlend mode="normal" in="SourceGraphic" in2="effect1_dropShadow_5_828" result="shape"/>
</filter>
<filter id="filter2_b_5_828" x="1.74941" y="8.82644" width="43.9165" height="24.4548" filterUnits="userSpaceOnUse" color-interpolation-filters="sRGB">
<feFlood flood-opacity="0" result="BackgroundImageFix"/>
<feGaussianBlur in="BackgroundImageFix" stdDeviation="0.707692"/>
<feComposite in2="SourceAlpha" operator="in" result="effect1_backgroundBlur_5_828"/>
<feBlend mode="normal" in="SourceGraphic" in2="effect1_backgroundBlur_5_828" result="shape"/>
</filter>
<filter id="filter3_bi_5_828" x="7.4111" y="6.7869" width="32.5933" height="19.3339" filterUnits="userSpaceOnUse" color-interpolation-filters="sRGB">
<feFlood flood-opacity="0" result="BackgroundImageFix"/>
<feGaussianBlur in="BackgroundImageFix" stdDeviation="1.06154"/>
<feComposite in2="SourceAlpha" operator="in" result="effect1_backgroundBlur_5_828"/>
<feBlend mode="normal" in="SourceGraphic" in2="effect1_backgroundBlur_5_828" result="shape"/>
<feColorMatrix in="SourceAlpha" type="matrix" values="0 0 0 0 0 0 0 0 0 0 0 0 0 0 0 0 0 0 127 0" result="hardAlpha"/>
<feOffset dy="0.707692"/>
<feGaussianBlur stdDeviation="0.176923"/>
<feComposite in2="hardAlpha" operator="arithmetic" k2="-1" k3="1"/>
<feColorMatrix type="matrix" values="0 0 0 0 1 0 0 0 0 0.910395 0 0 0 0 0.679983 0 0 0 0.25 0"/>
<feBlend mode="normal" in2="shape" result="effect2_innerShadow_5_828"/>
</filter>
<linearGradient id="paint0_linear_5_828" x1="23.7078" y1="19.4615" x2="23.7078" y2="37.5077" gradientUnits="userSpaceOnUse">
<stop stop-color="#F5D173" style="stop-color:#F5D173;stop-color:color(display-p3 0.9608 0.8180 0.4510);stop-opacity:1;"/>
<stop offset="1" stop-color="#F5992E" style="stop-color:#F5992E;stop-color:color(display-p3 0.9608 0.6018 0.1804);stop-opacity:1;"/>
</linearGradient>
<linearGradient id="paint1_linear_5_828" x1="23.7078" y1="19.4615" x2="23.7078" y2="37.5077" gradientUnits="userSpaceOnUse">
<stop stop-color="#F5C973" style="stop-color:#F5C973;stop-color:color(display-p3 0.9608 0.7875 0.4510);stop-opacity:1;"/>
<stop offset="1" stop-color="#F5BD2E" style="stop-color:#F5BD2E;stop-color:color(display-p3 0.9608 0.7423 0.1804);stop-opacity:1;"/>
</linearGradient>
<linearGradient id="paint2_linear_5_828" x1="23.7078" y1="19.4615" x2="23.7078" y2="37.5077" gradientUnits="userSpaceOnUse">
<stop stop-color="white" style="stop-color:white;stop-opacity:1;"/>
<stop offset="1" stop-color="#FFCF96" style="stop-color:#FFCF96;stop-color:color(display-p3 1.0000 0.8106 0.5882);stop-opacity:1;"/>
</linearGradient>
<linearGradient id="paint3_linear_5_828" x1="23.7076" y1="9.90768" x2="23.7076" y2="32.2" gradientUnits="userSpaceOnUse">
<stop stop-color="#F5C973" style="stop-color:#F5C973;stop-color:color(display-p3 0.9608 0.7875 0.4510);stop-opacity:1;"/>
<stop offset="1" stop-color="#F5BD2E" style="stop-color:#F5BD2E;stop-color:color(display-p3 0.9608 0.7423 0.1804);stop-opacity:1;"/>
</linearGradient>
<linearGradient id="paint4_linear_5_828" x1="23.7076" y1="9.90768" x2="23.7076" y2="32.2" gradientUnits="userSpaceOnUse">
<stop stop-color="white" style="stop-color:white;stop-opacity:1;"/>
<stop offset="1" stop-color="#FFCF96" style="stop-color:#FFCF96;stop-color:color(display-p3 1.0000 0.8106 0.5882);stop-opacity:1;"/>
</linearGradient>
<linearGradient id="paint5_linear_5_828" x1="23.7076" y1="9.90768" x2="23.7076" y2="32.2" gradientUnits="userSpaceOnUse">
<stop stop-color="white" style="stop-color:white;stop-opacity:1;"/>
<stop offset="1" stop-color="#FFCF96" style="stop-color:#FFCF96;stop-color:color(display-p3 1.0000 0.8106 0.5882);stop-opacity:1;"/>
</linearGradient>
<linearGradient id="paint6_linear_5_828" x1="23.7077" y1="8.49231" x2="23.7077" y2="24.4154" gradientUnits="userSpaceOnUse">
<stop stop-color="#F5D173" style="stop-color:#F5D173;stop-color:color(display-p3 0.9608 0.8180 0.4510);stop-opacity:1;"/>
<stop offset="1" stop-color="#F5992E" style="stop-color:#F5992E;stop-color:color(display-p3 0.9608 0.6018 0.1804);stop-opacity:1;"/>
</linearGradient>
</defs>
</svg>
